<?xml version="1.0" encoding="UTF-8"?>
<!DOCTYPE svg PUBLIC "-//W3C//DTD SVG 1.1//EN" "http://www.w3.org/Graphics/SVG/1.1/DTD/svg11.dtd">
<!-- Creator: CorelDRAW -->
<svg xmlns="http://www.w3.org/2000/svg" xml:space="preserve" width="210mm" height="297mm" version="1.1" style="shape-rendering:geometricPrecision; text-rendering:geometricPrecision; image-rendering:optimizeQuality; fill-rule:evenodd; clip-rule:evenodd"
viewBox="0 0 21000 29700"
 xmlns:xlink="http://www.w3.org/1999/xlink"
 xmlns:xodm="http://www.corel.com/coreldraw/odm/2003">
 <defs>
  <style type="text/css">
   <![CDATA[
    .fil0 {fill:#0273B3}
    .fil1 {fill:white}
   ]]>
  </style>
 </defs>
 <g id="Camada_x0020_1">
  <metadata id="CorelCorpID_0Corel-Layer"/>
  <g id="_1898754215888">
   <path class="fil0" d="M3468.23 4709.98l0 12485.34c0,534.46 167.95,890.07 583.5,1122.38 102.58,57.35 294.2,127.62 445.92,127.62l12941.21 0c205.48,0 457.13,-113.93 605.31,-232.93 97.81,-78.55 204.81,-193.87 267.16,-306.36 129.75,-234.07 156.95,-410.22 156.95,-710.71l0 -12485.34c0,-409.15 -78.98,-637.44 -269.03,-863.32 -138.51,-164.63 -465.73,-371.97 -760.39,-371.97l-12941.21 0c-395.81,0 -829.92,317.5 -965.5,725.69 -47.82,144 -63.92,323.74 -63.92,509.6z"/>
   <path class="fil1" d="M11435.24 10066.55l0 -970.59c-102.19,-27.33 -1858.73,-9.99 -2120.44,-9.99l0 7138.78 2208.68 -0.14c0,-1105.23 0,-2206.97 0,-3308.72 0,-936.24 44.06,-2000.85 1253.19,-2057.61 287.04,-13.48 455.75,22.45 685.23,137.08 148.46,74.16 312.16,263.88 385.53,438.17 190.65,452.79 173.27,949.67 173.27,1482.36 0,1102.95 0,2205.91 0,3308.86 747.23,0 1494.46,0 2241.69,0 -14.68,-1102.95 -14.68,-2205.91 -14.68,-3308.86 0,-844.2 22.92,-2174.39 -421.11,-2902.34 -223.3,-366.08 -437.06,-610.37 -830.83,-815.66 -389.54,-203.08 -875.68,-272.03 -1380.45,-287.2 -507.35,-15.24 -973.1,135.44 -1328.88,337.73 -293.55,166.91 -559.81,416.78 -741.92,699.68 -84.81,131.76 -24.57,107.86 -109.28,118.45z"/>
   <polygon class="fil1" points="5703.51,16224.75 7791.78,16224.75 7915.81,16224.75 7915.81,9085.97 5707.21,9085.97 "/>
   <path class="fil1" d="M6791.77 8113.44c371.76,0 682.57,-133.92 931.85,-383.36 124.39,-124.48 179.17,-189.71 262.06,-370.55 318.8,-695.58 -31.45,-1462.98 -645.33,-1712.27 -1204.58,-489.18 -2144.55,728.04 -1706.33,1691.49 207.56,456.31 654.01,774.69 1157.75,774.69z"/>
  </g>
 </g>
</svg>
