<?xml version="1.0" encoding="UTF-8"?>
<!DOCTYPE svg PUBLIC "-//W3C//DTD SVG 1.1//EN" "http://www.w3.org/Graphics/SVG/1.1/DTD/svg11.dtd">
<!-- Creator: CorelDRAW -->
<svg xmlns="http://www.w3.org/2000/svg" xml:space="preserve" width="210mm" height="297mm" version="1.1" style="shape-rendering:geometricPrecision; text-rendering:geometricPrecision; image-rendering:optimizeQuality; fill-rule:evenodd; clip-rule:evenodd"
viewBox="0 0 21000 29700"
 xmlns:xlink="http://www.w3.org/1999/xlink"
 xmlns:xodm="http://www.corel.com/coreldraw/odm/2003">
 <defs>
  <style type="text/css">
   <![CDATA[
    .fil2 {fill:#AB1313}
    .fil1 {fill:#BB3231}
    .fil0 {fill:#C61E21}
    .fil3 {fill:#CA4663}
    .fil8 {fill:#D79CC3}
    .fil7 {fill:#DD3539}
    .fil6 {fill:#F55867}
    .fil5 {fill:#FC7E92}
    .fil4 {fill:#FDF1FB}
   ]]>
  </style>
 </defs>
 <g id="Camada_x0020_1">
  <metadata id="CorelCorpID_0Corel-Layer"/>
  <g id="_1898751319840">
   <path class="fil0" d="M17339.21 6937.38c56.78,35.07 108.77,55.98 170.7,90.22 276.99,153.15 348.89,189.73 531.45,404.23 23.74,27.91 44.9,40.13 70.85,66.46 96.13,97.6 246.48,346.02 304.03,478.92 29.62,68.4 54.81,129.84 92.18,180.06 59.71,80.25 13.19,58.4 49.63,212 75.79,319.43 220.95,1132.25 169.4,1394.51 33.98,39.25 28.93,101.59 26.86,155.53l-1.98 458.89c-0.19,603.32 27.9,1264.97 17.75,1835.13 -14.31,804.47 -12.54,1630.88 -10.94,2446.8 0.75,386.22 15.71,862.15 -33.23,1210 -24.81,176.47 -18.9,397.98 -43.9,583.12 -36.83,272.73 -64.06,310.84 -96.99,512.85 -21.23,130.22 -34.83,94.51 -75.83,159.98l-118.63 277.52c-88.07,246.99 -238.63,386.16 -387.89,533.25 -64.12,63.19 -80.73,80.44 -180.58,127.32l-30.63 14.5c-3.09,1.49 -7.07,3.45 -10.16,4.95 -3.08,1.52 -7.05,3.5 -10.12,5.01 -120.85,59.67 -270.27,141.93 -407.09,112.8 6.23,-56.69 -1.13,-58.54 78.26,-123.69 36.11,-29.65 61.23,-38.46 101.19,-67.3 85.13,-61.44 103.78,-106.63 177.2,-173.18l182.34 -169.06c59.19,-62.18 89.67,-122.79 139.48,-197.13 223.09,-332.91 108.75,-204.3 239.05,-449.3 87.24,-163.99 94.6,-357.32 154.15,-534.67 36.46,-108.56 102.13,-603.92 108.88,-756.69 3.49,-79.1 14.58,-88.88 23.28,-143.98 12.77,-80.9 5.05,-240.52 5.51,-329.9 1.38,-270.21 21.08,-410.12 -53.83,-632.23 -10.42,-30.92 -42.51,-99.11 -50.87,-132.78 -33.44,-134.82 -29.84,-2963.11 -31.35,-3226.34 -2.41,-424.93 21.72,-956.51 -14.41,-1359.12 -18.21,-202.85 -26.51,-439.78 -39.99,-643.75 -15.32,-231.76 -57.1,-386.8 -80.82,-596.95 -3.27,-3.69 -6.69,-8.59 -8.78,-11.88 -48.66,-76.45 -46.56,-143.49 -81.98,-236.69l-210.02 -394.98c-55.35,-64.49 -35.17,-69.16 -80.21,-105.4 -2.82,-2.29 -12.28,-9.07 -15.39,-11.79l-108.12 -141.77c-54.24,-105.66 -144.11,-119.53 -210.3,-168.12l-80.97 -60.22c-0.69,-0.46 -16.75,-11.74 -21.51,-15.81 -99.18,-84.79 -217.04,-50.22 -403.94,-71.32l45.2 -17.54c-32.26,-1.75 -68.39,-7.23 -91.69,-15.27 -54.92,-18.95 -21.68,-9.06 -40.2,-21.66l-65.89 -40.8c-23.85,-14.19 -12.17,-4.14 -27.33,-19.12l-167.51 -152.61c-23.12,-13.97 -44.87,-23.85 -70.68,-35.85 -86.6,-40.24 -391.65,-86.49 -522.41,-118.72l-444.16 -74.59c-86.97,-15.78 -363.76,-7.49 -580.82,-46.61 -132.96,-23.96 -279.79,1.56 -417.03,-12.05 -120.45,-11.96 -258.39,-14.73 -398.99,-13.63 -146.32,1.15 -257.74,-11.84 -412.88,-12.51l-1269.29 -1.03c-2183.28,6.76 -4380.37,-12.24 -6561.41,3.79 -99.62,0.73 -85.97,20.19 -166.86,26.68 -127.17,10.22 -281.25,5.31 -407.39,21.64 -105.03,13.6 -276.7,17.47 -375.01,37.32l-736.27 101.74c76.82,-29.85 69.17,21.37 71.47,23.63 -42.79,1.09 -87.48,0.88 -129.84,2.36l-51.52 14.79c-0.86,0.75 -3.72,9.03 -4.3,6.92 -0.59,-2.23 -2.29,5.31 -3.9,7.74l-110.86 5.93c73.52,-28.72 69.55,21.75 70.2,23.72l-127.55 17.57c-5.65,11.51 46.39,-4.41 -24.12,29.18 -67.88,32.34 -238.67,21.32 -307.21,75.7 -2.36,1.87 -5.45,5.25 -7.81,7.18 -2.43,1.99 -5.61,5.28 -8.11,7.27l-214.26 123.63c-2.8,1.69 -6.62,4.01 -9.37,5.73 -2.75,1.7 -6.42,4.2 -9.15,5.93l-66.65 40.85c-60.29,37.58 -16.33,27.47 -138.95,119.88l-32.44 28.27c-2.46,2.04 -5.89,4.99 -8.39,7.01 -308.53,249.31 -20.95,20.01 -239.64,264.76l-135.64 186.56c-90.04,134.18 -104.98,275.17 -174.52,327.08l-133.82 721.82c-18.1,194.4 24.03,165.72 -25,398.92 -55.46,263.86 -39.13,1783.47 -39.51,2107.91 -0.36,302.22 1.82,3186.33 -23.42,3425.53 -43.53,27.67 -34.37,-3.49 -82.57,30.6 -8.4,225.86 20.5,851.88 66.27,1050.58 34.67,150.62 48.29,305.33 90.33,456.96 21.91,79.04 42.21,138.12 56.85,220.46l200.34 487.14 290.18 397.91c41.15,45.83 234.09,249.87 276.3,274.71l166.82 108.31c52.99,36.73 110.42,70.8 135.9,138.89 -23.22,16.21 22.35,0.75 -39.99,21.21 -26.33,8.64 -7.8,4.6 -38.2,7.77 -114.02,11.82 -150.47,-35.3 -236.16,-79.14 -297.05,-151.94 -478.35,-296.67 -675.03,-566.04 -62.04,-84.98 -105.61,-162.86 -146.44,-281.64 -120.19,-349.76 -97.87,-141.81 -192.35,-636.25 -164.15,-859.1 -111.43,-2792.75 -112.32,-3619.5 -1.17,-1090.53 -19.05,-2229.78 17.86,-3308.26 16.94,-494.7 32.84,-680.15 110.02,-1150.32 48.89,-297.87 52.63,-181.95 87.78,-321.12 51.29,-203.05 166.52,-400.62 265.67,-568.24 102.72,-173.64 160.36,-212.5 294.59,-332.85 61.81,-55.42 31.92,-71.37 100.53,-106.31 161.62,-126.5 413.46,-237.54 603.7,-307.51 749.75,-275.71 1602.27,-311.85 2407.13,-345.88 1196.3,-50.6 2449.04,-22.83 3654.92,-24.06 1218.45,-1.25 2434.4,-5.06 3654.92,-8.88 865.56,-2.71 1795.5,1.1 2646.25,100.17 120.13,13.99 742.27,119.84 778.91,103.31 -52.92,-4.45 -115.34,-23.59 -176.62,-37.1 -465.57,-102.59 -573.08,-88.55 -982.99,-133.37 -133.13,-14.56 -265.97,-17.28 -414.32,-29.15 -551.53,-44.18 -1166.54,-29.76 -1759.47,-29.76 -2084.88,0 -4169.77,0 -6254.66,0 -307.02,0 -572.02,15.37 -886.97,15.28 -217.73,-0.05 -1054.41,40.28 -1260.54,69.92 -494.82,71.14 -599.44,58.33 -1149.93,195.81 -224.92,56.18 -757.75,274.52 -919.89,425.85 -204.88,191.18 -248.58,217.7 -416.26,470.71 -27.11,40.91 -64.84,82.94 -87.1,127 -258.02,510.82 -324.19,1080.8 -370.93,1647.69 -17.21,208.72 -16.1,657.74 -16.1,870.87 0,300.9 0.94,601.93 0.53,902.79 -0.12,91.89 -15.35,110.88 -16.42,197.66 -15.29,1237.31 0.65,2564.25 0.6,3808.46l43.29 843.69c16.5,154.04 30.74,262.45 51.01,407.77 57.5,412.22 254.88,950.8 521.69,1267.54 60.53,71.85 145.34,129.99 228.79,214.68 86.67,87.96 156.08,113.95 265.07,178.42 195.7,115.75 406.8,201.5 631.5,270.76 381.26,117.53 1143.44,230.53 1531.24,242.7 121.33,3.81 290.58,29.67 412.31,31.17 70.83,0.87 144.73,-3.22 215.21,-1.11 81.32,2.44 115.11,16.56 213.39,15.99 313.23,-1.79 589.36,15.1 887.17,15.1l7156.92 0c152.9,0 299.72,1.61 430.43,-13.05 135.27,-15.2 299.43,-0.86 428.19,-15.3 140.31,-15.74 282.83,-4.38 423.71,-19.78 516.57,-56.49 653.06,-58.23 1178.53,-167.21 384.52,-79.75 971.32,-285.75 1236.15,-553.08 36.86,-37.21 68.69,-73.28 107.15,-106.95 64.69,-56.64 61.66,-35.31 114.05,-115.34 247.26,-377.76 127.68,-135.15 318.25,-568.71 167.66,-381.4 258.96,-1101.23 259.03,-1530.2 0.02,-91.91 15.35,-110.79 16.43,-197.68 0.94,-76.06 -0.61,-153.69 -0.61,-229.99l0 -2691.49c0,-579.26 23.95,-1212.31 -3.18,-1784.45 -37.03,-781.03 21.46,-1249.38 -118.84,-2084.89 -20.55,-122.39 -60.87,-240.99 -88.98,-354.51 -70.78,-285.68 -197.12,-521.79 -363.63,-752.72l-208.92 -234.56c-106.14,-98.17 -135.46,-126.5 -249.83,-193.67 -51.81,-30.43 -98.42,-57.65 -144.94,-84.44 -71.52,-41.17 -216.77,-127.11 -308.52,-138.42z"/>
   <path class="fil1" d="M4385.81 8473.53c-116.38,59.19 -262.8,357.38 -348.81,511.15 -45.61,81.55 -156.46,615.93 -173.78,710.92 -15.73,86.3 -18.84,238.15 -28.02,329.19 -65.38,648.73 -72.2,2810.37 -76.02,3488.39 -3.67,653.47 -52.03,2279.04 114.06,2735.11 50.85,139.62 140.87,382.5 220.21,482.16 83.89,105.35 245.97,315.47 347.38,371.6 95.43,52.82 148.42,72.72 245.15,104.68 88.8,29.35 159.84,68.6 254.92,98.2l585.74 133.96c602.49,113.84 2028.16,126.73 2701.66,132.47 1891.69,16.1 3767.05,18.9 5658.25,1.8 451.15,-4.08 935.61,-14.11 1364.52,-60.19l308.42 -43.72c382.84,-68.61 717.3,-199.62 853.24,-224.88 62.64,-37.4 136.34,-36.41 193.7,-76.92 286.74,-202.53 501.01,-538.98 574.85,-880.29 19.41,-89.67 28.44,-157.08 41.21,-249.64 31.36,-227.24 10.38,-115.05 117.62,-169.29l1.94 -90.05c-56.99,11.32 -25,15.26 -87.07,16.34 -11.79,-195 27.77,-426.27 28.29,-629.71 0.57,-224.64 2.18,-448.26 4.1,-672.91 3.82,-444.36 5.66,-901.94 -1.24,-1345.75 -13.83,-891.84 -21.31,-1771.51 -40.22,-2661.2 -6.94,-327.03 -47.38,-1193.52 -186.74,-1474.68 -42.32,-85.36 -75.22,-139.6 -119.26,-217.24 -108.01,-190.43 -143.32,-246.73 -294.67,-378.15 -253.14,-219.81 -509.83,-313.7 -954.4,-390.53 -1409.23,-243.55 -5045.54,-182.04 -6529.16,-158.27 -803.44,12.87 -3609.97,-9.51 -4342.76,356.89l-433.11 250.56z"/>
   <path class="fil2" d="M16412.73 17244.37c-135.94,25.26 -470.4,156.27 -853.24,224.88l-308.42 43.72c-428.91,46.08 -913.37,56.11 -1364.52,60.19 -1891.2,17.1 -3766.56,14.3 -5658.25,-1.8 -673.5,-5.74 -2099.17,-18.63 -2701.66,-132.47l-585.74 -133.96c-95.08,-29.6 -166.12,-68.85 -254.92,-98.2 -96.73,-31.96 -149.72,-51.86 -245.15,-104.68 -101.41,-56.13 -263.49,-266.25 -347.38,-371.6 -79.34,-99.66 -169.36,-342.54 -220.21,-482.16 -166.09,-456.07 -117.73,-2081.64 -114.06,-2735.11 3.82,-678.02 10.64,-2839.66 76.02,-3488.39 9.18,-91.04 12.29,-242.89 28.02,-329.19 17.32,-94.99 128.17,-629.37 173.78,-710.92 86.01,-153.77 232.43,-451.96 348.81,-511.15 -1.13,-3.26 -1.75,-12.28 -1.64,-10.23 0.08,2.03 -1.22,-8.28 -0.96,-10.18 7.47,-52.2 45.33,-73.06 77.37,-114.17 -23.07,-55.05 -16.64,-0.06 -31.91,-77.82 22.18,-14.7 38.75,-25.28 61.47,-39.18 -26.52,-54.42 -8.42,-90.4 29.01,-123.51 23.1,-20.45 11.42,46.26 17.21,-20.01 30.24,-15.81 14.67,33.25 -14.71,-19.93l-18.04 -59.48 -77.45 14.69 -42.57 76.71c-20.71,-22.34 13.68,-6.54 -60.44,-0.56 13.41,-17.95 29.36,-24.02 24.51,-46.63 -12.23,-57.13 34.8,31.46 -18.32,-23.82 -2.47,-2.57 -8.03,-6.5 -10.32,-8.61 -2.43,-2.26 -7.97,-5.42 -11.32,-8.84 15.56,-10.1 51.44,-24.82 36.45,-38.25 -23.68,-21.2 12.57,5.85 -63.11,21.04 -46.27,9.29 -37.02,-26.98 -69.9,25.23 -31.58,50.12 5.98,15.85 -14.93,79.33 -61.72,-11.43 -49.72,-32.93 -96.92,-16.94 -2.36,0.8 -6.46,3.1 -8.91,4.11 -50.1,20.75 -97.87,39.11 -109.27,73.38l-115.92 -61.02c-34.37,15.9 4.4,-13.51 -17.6,19.01l-17.51 29.97c-1.44,2.53 -3.48,8.07 -6.04,11.61 -49.22,-4.9 -53.76,-17.48 -77.78,9.93 -1.68,1.92 -4.34,5.89 -5.88,8.15 -1.66,2.45 -3.77,6.71 -5.31,9.46l-67.56 86.31c-2.17,1.07 -7.57,1.98 -10.88,3.95 10.47,17.03 25.81,16.47 12.11,67.27 -18.94,70.24 8.42,-8.29 -13.64,21.98 -50.96,69.93 14.36,-60.38 -16.53,18.39 -2.41,108.92 36.33,108.01 -30.18,196.11 -11.6,-23.26 3.51,-54.86 -28.7,-119.57 -88.08,9.08 -5.7,3.01 -80.98,41.28 -4.02,2.04 -16.79,8.34 -21.04,10.4 -3.27,1.59 -7.13,3.98 -10.43,5.48 -4.27,1.95 -16.36,8.38 -20.69,9.71 -49.81,15.12 -28.72,11.56 -66.76,-6.5 -0.28,99.09 23.71,72.82 -16,151.98 -26.72,-18.13 -2.15,-5.37 -40.49,-16.74 18.25,-44.12 50.84,-4.18 4.75,-111.52 -22.29,-51.94 -16.09,-99 -22.73,-161.85 -76.56,36.31 -50.87,32.58 -83.81,89.05 -69.21,118.55 7.84,-50.01 -26.25,35.95l92.55 10.47c-37.5,88.92 -96.76,-50.44 -199.86,108.59 -67.12,-6.42 -45.11,-78.05 -118.67,49.94l-101.05 143.03c3.24,3.57 8.29,3.7 10.08,10.42 6.84,25.78 55.34,60.29 85.15,69.52 -65.66,17.38 -28.94,6.27 -56.98,43.65l-6.82 -12.11c-20.73,-36.9 -1.55,-33.75 -48.31,-52.87 -21.4,117.19 3.03,49.82 9.12,91.59 3.16,21.74 -7.08,70.42 -5.79,117.45 -67.51,28.02 -52.4,-34.2 -65.76,45.18 -7.55,44.77 17.47,5.27 20.86,92.46 -0.33,0.12 -41.04,1.4 -43.93,38.87 -1.78,22.88 42.64,11.12 -29.69,65.54 2.47,3.04 6.36,3.71 7.41,9.1 1.02,5.39 5.63,7.27 7.04,9.34 10.36,15.37 1,-1.79 18.52,28.66 1.72,2.98 3.63,7.02 5.29,10.05 1.67,3.06 3.58,7.28 5.14,10.26l15.81 31.25c2.32,0.27 5.65,-5.38 6.14,-3.33 13.61,57.38 9.35,-5.76 10.91,-6.42 29.03,-12.18 -18.56,-21.99 17.77,-1.82 0.91,0.5 4.25,3.26 5.22,4.01l16.59 154.72c-1.04,4.13 -11.26,52.37 -16.17,75.09l-149.34 247.55c34.28,74.96 -5.38,29.69 58.01,61.18 -32.08,54.39 -7.76,54.32 -7.38,104.94 0.21,28.93 -7.75,58.83 5.92,112.29l12.9 36.78c19.62,52.63 34.94,57.42 -34.11,133.79 -2.14,2.36 -6.27,6.4 -9.17,9.8l18.82 34.15c25.78,60.3 -0.98,97.98 -4.48,175.94 26.21,10.93 35.27,11.38 61.98,19.29l-75.14 30.59c0.29,72.91 11.58,85.41 15.06,137.63 3.76,2.16 10.23,0.77 11.68,5.67l33.12 9.63c-78.89,54.09 -71.05,277.25 -44.29,357.05 36.13,107.63 -12.43,136.22 -29.95,172.83l-21.34 77.43c-7.93,35.33 -12.82,69.47 20.12,90.11 -92.18,-16.41 -47.22,11.86 -53.09,20.28 -35.46,50.9 -0.59,47.36 2.97,111.02 1.84,32.71 -1.44,41.73 19.69,58.24 -41.49,19.57 -27.1,7.36 -42.59,58 -30.24,98.82 -34.94,74.07 15.79,218.94l10.19 161.87c29.35,11.54 18,17.72 63.1,11.48 -58.63,36.3 -48.22,26.64 -46.94,115.54 19.32,15.21 7.01,9.75 36.54,23.27 3.34,1.51 20.73,5.74 25.57,7.31 -82.77,38.38 -39.24,-4.19 -30.86,91.76l-61.26 30.59c62.12,54.58 40.68,16.08 40.88,88.22 0.11,34.75 12.53,6.41 -3.63,49.7 -2,5.36 -13.92,23.85 -16.66,28.98 -1.08,2.05 -11.57,8.57 -20.86,41.91 28.34,18.13 27.31,19.36 60.89,35.86 -31.61,28.1 -28.14,50.17 -38.18,60.74l21.77 56.86c26.45,40.9 8.16,97.11 1.92,117.45l-12.95 57.95c-17.98,101.59 36.06,176.69 -65.87,188.9 -2.06,0.25 -7.35,-0.01 -10.79,1.1 -0.95,3.16 -0.76,5.38 -0.71,9.89 0.05,4.33 -0.44,7.96 -0.32,9.52l60.9 170.47c-16.77,8.13 -39.82,15.41 -58.65,24.65 0.06,64.83 -4.44,88.03 10.43,135.93 12.44,40.09 26.43,65.37 62.38,84.1 -11.97,6.04 -32.08,14.51 -46.1,21 8.11,264.88 -19.42,211.7 -28.5,314.14 -9.03,101.97 7.38,207.07 8.68,212 1.07,4.08 2.94,7.8 4.14,11.63 37.98,123.12 -20.66,53.3 32.02,178.31 11.15,26.46 2.82,64.65 -13.8,97.73 -0.98,-5 -2.74,-24.78 -4.02,-28.45l-15.54 -33.84c-1.5,-2.99 -4.28,-8.36 -7.25,-11.95 0.62,142.69 29.35,193.94 33.02,319.01 2.18,74.84 -26.33,31.14 -19.78,125.78 3.83,55.24 22.82,96.13 -2.58,155.68 11.33,9.05 -11.67,37.39 74.66,21.8l-62.09 39.37c0.73,70.43 -10.35,163.73 46.58,208.72 -64.29,13.51 -79.87,110.46 -15.55,112.43 -3.5,47.64 -13.44,30.98 -6.46,74.26 15.78,97.89 18.51,26.3 32.6,73.37 7.65,25.57 -10.81,130.24 -10.95,184.02 36.75,-18.12 -56.89,-8.35 -29.74,159.75 21.39,132.35 29.81,68.65 16.56,212.04 44.74,117.79 -55.39,-94.69 27.63,41.87 40.9,67.28 -24.27,158.46 -5.27,244.75 31.01,140.75 77.15,-11.49 99.88,264.14 3.72,45.2 11.59,197.62 21.59,241.32 19.69,86.12 73.05,162.71 97.92,242.18 19.99,63.89 15.62,15.63 30.72,85.18 17.17,79.11 35.86,111.17 71.9,178.49 13.37,24.97 26.59,56.23 43.22,80.65l56.84 77.96c18.26,41.4 8.43,46.73 42.64,82.48l114.55 98.92c48.59,54.74 84.4,43.85 142.75,116.52l109.74 94.5c3.63,1.79 7.89,3.18 11.61,4.78l87.7 59.8c38.61,33.23 42.08,20.38 85.84,40.65 56.96,26.4 94.05,65.2 162.82,84.06 74.57,20.47 48.8,25.25 107.7,44.23l227.2 108.43c38.25,7.9 88.36,-0.05 130.72,8.93l132.5 46.51c61.07,34.81 164.49,36.23 248.69,59.17 109.35,29.78 358.1,23.58 458.03,21.55 67.28,-1.36 108.21,27.6 179.3,35.76 93.63,10.74 103.13,-18.43 213.34,12.68 58.22,16.43 109.82,31.54 165.92,24.23 66.69,-8.66 34.5,-29.01 76.51,-29.03 34.44,-0.01 145.67,54.86 322.14,53.53 248.84,-1.86 468.2,40.18 707.17,17.01 73.63,-7.14 161.45,-3.83 231.62,6.18 100.78,14.36 480.16,-4.51 563.97,-39.73l72.58 -37.55c-4.25,2.8 -15.49,13.38 -17.51,16.88 -20.92,36.49 -7.18,1.5 -23.09,53.57l236.52 -13.3 -12.43 -31.27c-6.8,-16.94 -19.67,-20.52 -15.48,-41.56 38.45,72.41 22.33,37.04 114.29,49.75 271.8,37.55 482.3,42.33 757.11,62.85l1010.04 13.46c184.73,14.72 1221.19,38.87 1386.32,20.46 275.76,-30.77 1779.83,-10.91 2130.51,-11.96 691.38,-2.09 1391.74,-8.52 2079.52,-46.42 119.18,-6.58 215.72,-19.13 321.64,-26.04 126.69,-8.26 59.38,-23.21 336.82,-33.86 46.65,-1.79 112.44,-7.56 149.7,-18.48 69.24,-20.31 66.55,-34.33 134.79,-45.35l696.57 -190.83 307.87 -165.4c2.55,-2 6.09,-4.79 8.61,-6.81 3.9,-3.15 16.84,-14.49 25.05,-21.04 54.39,-43.44 118.26,-53.45 180.28,-95.05 60.46,-40.55 103.53,-74.26 141,-133.99 1.78,-2.83 3.79,-6.9 5.65,-9.67 2.55,-3.78 15.85,-21.76 20.29,-26.18 32.79,-32.58 76.02,-39.51 108.04,-74.93 27.28,-30.15 25.56,-62.14 44.41,-87.16l39.04 -68.18c-30.56,11.58 -34.03,42.52 -72.67,46.81 -36.83,4.09 -43.19,-18.85 -88.24,-36.16l-37.78 -16.84 41.9 -110.9c-1.79,-1.31 -6.55,-4.86 -8.77,-6.46 -55.9,-40.31 -109.37,-21.44 -152.59,-75.89l-29.79 77.65 -95.45 -0.41c13.68,-73.72 49.37,-82.94 -29.34,-89.74 33.76,-36.39 114.64,-56.22 151.9,-94.3 -99.74,-0.2 -171.01,20 -241.81,44.35 -97.29,33.45 -272.82,23.44 -386.65,27.68l-36.02 -0.48c-10.6,-1.64 -9.11,-30.59 -145.5,31.46 -41.09,18.7 -60.82,35.86 -88.81,62.56 -73.64,-19.92 -35.25,-33.63 -133.43,-18.26 -1.79,0.28 -5.84,1.37 -7.54,1.48l-85.51 -13.09z"/>
   <path class="fil3" d="M8327.37 11433.39c0.93,489.44 -29.42,3128.99 22.12,3378.1 18.81,90.91 93.91,280.41 147.38,344.83l189.3 149.68c168.48,73.15 400.04,73.49 582,80.16 153.07,5.61 374.97,52.35 533.03,-4.16 65.62,-23.46 87.23,-42.83 28.9,-92.26 -67.09,-56.84 -281.68,-55.42 -366.71,-60.06l300.59 -179.86c91.61,-54.12 941.97,-557.41 1070.09,-611.87l143.02 -72.32c2.68,-1.83 6.4,-4.37 9.02,-6.24l495.69 -299.8c31.68,-27.78 39.06,-31.44 79.87,-55.25l583.42 -321.8c61.63,-53.56 -20.79,-7.96 66.77,-52.08 168.13,-84.71 324.85,-214.49 488.05,-290.42l581.87 -324.5c121.25,-86.78 281.32,-156.09 367.77,-274.1 98.09,-133.91 -11.9,-276.7 -109.48,-364.2l-126.73 -89.41c-66.57,-44.1 -134.33,-50.74 -206,-88.08 -1.22,-0.63 -4.61,-2.84 -5.75,-3.6l-17.15 -16.32c-85.16,-81.28 -178.01,-118.53 -275.77,-182.93 -53.35,-35.14 -110.38,-53.61 -159.88,-85.77l-229.96 -136.62c-133.88,-89.42 -293.84,-156.28 -435.06,-239.73l-157.91 -99.93c-153.17,-96.65 -240.97,-119.24 -414.4,-242.39l-326.35 -170.38c-39.47,-13.73 -47.17,-21.16 -82.54,-48.32l-821.25 -479.06c-19.82,-13.13 -30.22,-28.19 -74.32,-50.34 -56.93,-28.58 -91.47,-76 -145.68,-98.26 -57.56,-23.63 -42.9,-14.5 -93.94,-42.72 -65.83,-36.41 -103,-67.04 -159.43,-99.72l-401.24 -224.75c-175.1,-109.65 -559.66,-164.83 -743.4,-11.79 -1.46,1.21 -4.4,4.44 -5.76,5.58 -1.26,1.05 -4.23,3.97 -5.46,4.95l-26.61 17.41c-2.1,1.4 -6.18,3.99 -8.39,5.51 -176.91,122.33 -192.81,226.76 -262.48,413.67 -42.35,113.66 -27.21,832.98 -27.24,1019.15z"/>
   <path class="fil4" d="M8815.33 9964.61c-369.04,111.87 -422.69,448.78 -422.11,902.95l-1.88 2630.32c-0.13,334.92 -36.61,1019.9 25.6,1309.68 78.15,364.1 369.68,590.7 802.33,447.32 203.72,-67.51 1473.35,-826.21 1694.63,-952.34l2510.74 -1449.82c497.22,-287.85 13.83,-464.19 -277.71,-633.9 -286.94,-167.02 -555.84,-323.16 -843.94,-486.63l-2513.19 -1447.68c-223.07,-130.14 -626.7,-425.32 -974.47,-319.9z"/>
   <path class="fil5" d="M3122.39 7267.3c18.15,15.13 -33.81,43.28 118.17,-25.28 97.47,-43.98 109.98,-14.95 263.39,-105.21 111.33,-65.49 604.71,-205.42 737.41,-240.7 4.28,0.79 680.81,-101.45 758.34,-112.89 248.75,-36.68 565.12,-43.09 825.62,-55.12 568.03,-26.2 1145.2,-13.96 1719.33,-32.14 575.9,-18.22 1175.49,-3.4 1754.13,-4.43l5276.55 0.32c522.4,3.06 1682.43,70.97 2224.53,212.9 29.04,7.61 49.74,14.94 69.05,32.9 110.79,103.06 60.63,111.42 107.72,195.8 116.3,208.38 214.6,145.18 506.27,142.35l-1.55 -121.8c84.88,21.44 128.78,69.36 234.89,104.52 -2.45,80.4 -50.59,89.76 -74.24,168.22 2.61,36.05 391.11,362.48 404.21,502.44 78.86,30.67 104.1,96.04 145.21,209.23 90.74,249.87 118.94,208.25 148.86,357.34l76.21 226.85c11.19,33.98 14.59,90.35 17.44,141.64l33.85 143.8c49.77,371.01 95.27,937.29 97.4,1308.47l2.92 4022.46c0.44,127.01 -3.86,260.95 28.73,371.4 17.17,58.16 82.55,206.98 126.99,250.68 26.22,-209.24 14.23,-440.23 14.57,-652.65l-10.94 -4544.62c51.55,-262.26 -93.61,-1075.08 -169.4,-1394.51 -36.44,-153.6 10.08,-131.75 -49.63,-212 -37.37,-50.22 -62.56,-111.66 -92.18,-180.06 -57.55,-132.9 -207.9,-381.32 -304.03,-478.92 -25.95,-26.33 -47.11,-38.55 -70.85,-66.46 -182.56,-214.5 -254.46,-251.08 -531.45,-404.23 -61.93,-34.24 -113.92,-55.15 -170.7,-90.22 -84.49,-38.9 -143.8,-56.48 -231.68,-86.02 -46.82,-15.75 -71.53,-25.42 -116.28,-36.63 -41.01,-10.29 -88.39,-13.89 -123.03,-30.28 -36.64,16.53 -658.78,-89.32 -778.91,-103.31 -850.75,-99.07 -1780.69,-102.88 -2646.25,-100.17 -1220.52,3.82 -2436.47,7.63 -3654.92,8.88 -1205.88,1.23 -2458.62,-26.54 -3654.92,24.06 -804.86,34.03 -1657.38,70.17 -2407.13,345.88 -190.24,69.97 -442.08,181.01 -603.7,307.51z"/>
   <path class="fil6" d="M3122.39 7267.3c-68.61,34.94 -38.72,50.89 -100.53,106.31 -134.23,120.35 -191.87,159.21 -294.59,332.85 -99.15,167.62 -214.38,365.19 -265.67,568.24 -35.15,139.17 -38.89,23.25 -87.78,321.12 -77.18,470.17 -93.08,655.62 -110.02,1150.32 -36.91,1078.48 -19.03,2217.73 -17.86,3308.26 0.89,826.75 -51.83,2760.4 112.32,3619.5 94.48,494.44 72.16,286.49 192.35,636.25 40.83,118.78 84.4,196.66 146.44,281.64 196.68,269.37 377.98,414.1 675.03,566.04 85.69,43.84 122.14,90.96 236.16,79.14 30.4,-3.17 11.87,0.87 38.2,-7.77 62.34,-20.46 16.77,-5 39.99,-21.21 -25.48,-68.09 -82.91,-102.16 -135.9,-138.89l-166.82 -108.31c-42.21,-24.84 -235.15,-228.88 -276.3,-274.71l-290.18 -397.91 -200.34 -487.14c-14.64,-82.34 -34.94,-141.42 -56.85,-220.46 -42.04,-151.63 -55.66,-306.34 -90.33,-456.96 -45.77,-198.7 -74.67,-824.72 -66.27,-1050.58 48.2,-34.09 39.04,-2.93 82.57,-30.6 25.24,-239.2 23.06,-3123.31 23.42,-3425.53 0.38,-324.44 -15.95,-1844.05 39.51,-2107.91 49.03,-233.2 6.9,-204.52 25,-398.92l133.82 -721.82c81.29,-231.3 252.31,-563.41 405.86,-738.94 176.4,-201.65 397.84,-341.95 623.58,-493.68 159.55,-107.24 266.51,-41.56 504.16,-259.52 -132.7,35.28 -626.08,175.21 -737.41,240.7 -153.41,90.26 -165.92,61.23 -263.39,105.21 -151.98,68.56 -100.02,40.41 -118.17,25.28z"/>
   <path class="fil7" d="M4241.36 6896.11c-237.65,217.96 -344.61,152.28 -504.16,259.52 -225.74,151.73 -447.18,292.03 -623.58,493.68 -153.55,175.53 -324.57,507.64 -405.86,738.94 69.54,-51.91 84.48,-192.9 174.52,-327.08l135.64 -186.56c218.69,-244.75 -68.89,-15.45 239.64,-264.76 2.5,-2.02 5.93,-4.97 8.39,-7.01l32.44 -28.27c122.62,-92.41 78.66,-82.3 138.95,-119.88l66.65 -40.85c2.73,-1.73 6.4,-4.23 9.15,-5.93 2.75,-1.72 6.57,-4.04 9.37,-5.73l214.26 -123.63c2.5,-1.99 5.68,-5.28 8.11,-7.27 2.36,-1.93 5.45,-5.31 7.81,-7.18 68.54,-54.38 239.33,-43.36 307.21,-75.7 70.51,-33.59 18.47,-17.67 24.12,-29.18l127.55 -17.57c-0.65,-1.97 3.32,-52.44 -70.2,-23.72l110.86 -5.93c1.61,-2.43 3.31,-9.97 3.9,-7.74 0.58,2.11 3.44,-6.17 4.3,-6.92l51.52 -14.79c42.36,-1.48 87.05,-1.27 129.84,-2.36 -2.3,-2.26 5.35,-53.48 -71.47,-23.63l736.27 -101.74c98.31,-19.85 269.98,-23.72 375.01,-37.32 126.14,-16.33 280.22,-11.42 407.39,-21.64 80.89,-6.49 67.24,-25.95 166.86,-26.68 2181.04,-16.03 4378.13,2.97 6561.41,-3.79l1269.29 1.03c155.14,0.67 266.56,13.66 412.88,12.51 140.6,-1.1 278.54,1.67 398.99,13.63 137.24,13.61 284.07,-11.91 417.03,12.05 217.06,39.12 493.85,30.83 580.82,46.61l444.16 74.59c130.76,32.23 435.81,78.48 522.41,118.72 25.81,12 47.56,21.88 70.68,35.85l167.51 152.61c15.16,14.98 3.48,4.93 27.33,19.12l65.89 40.8c18.52,12.6 -14.72,2.71 40.2,21.66 23.3,8.04 59.43,13.52 91.69,15.27l-45.2 17.54c186.9,21.1 304.76,-13.47 403.94,71.32 4.76,4.07 20.82,15.35 21.51,15.81l80.97 60.22c66.19,48.59 156.06,62.46 210.3,168.12l108.12 141.77c3.11,2.72 12.57,9.5 15.39,11.79 45.04,36.24 24.86,40.91 80.21,105.4l210.02 394.98c35.42,93.2 33.32,160.24 81.98,236.69 2.09,3.29 5.51,8.19 8.78,11.88 -10.21,-102.64 -70.69,-284.31 -103.85,-382.9 -43.25,-128.6 -118.85,-241.11 -152.1,-353.28 -13.1,-139.96 -401.6,-466.39 -404.21,-502.44 23.65,-78.46 71.79,-87.82 74.24,-168.22 -106.11,-35.16 -150.01,-83.08 -234.89,-104.52l1.55 121.8c-291.67,2.83 -389.97,66.03 -506.27,-142.35 -47.09,-84.38 3.07,-92.74 -107.72,-195.8 -19.31,-17.96 -40.01,-25.29 -69.05,-32.9 -542.1,-141.93 -1702.13,-209.84 -2224.53,-212.9l-5276.55 -0.32c-578.64,1.03 -1178.23,-13.79 -1754.13,4.43 -574.13,18.18 -1151.3,5.94 -1719.33,32.14 -260.5,12.03 -576.87,18.44 -825.62,55.12 -77.53,11.44 -754.06,113.68 -758.34,112.89z"/>
   <path class="fil6" d="M18302.16 8665.36c23.72,210.15 65.5,365.19 80.82,596.95 13.48,203.97 21.78,440.9 39.99,643.75 36.13,402.61 12,934.19 14.41,1359.12 1.51,263.23 -2.09,3091.52 31.35,3226.34 8.36,33.67 40.45,101.86 50.87,132.78 74.91,222.11 55.21,362.02 53.83,632.23 -0.46,89.38 7.26,249 -5.51,329.9 -8.7,55.1 -19.79,64.88 -23.28,143.98 -6.75,152.77 -72.42,648.13 -108.88,756.69 -59.55,177.35 -66.91,370.68 -154.15,534.67 -130.3,245 -15.96,116.39 -239.05,449.3 -49.81,74.34 -80.29,134.95 -139.48,197.13l-182.34 169.06c-73.42,66.55 -92.07,111.74 -177.2,173.18 -39.96,28.84 -65.08,37.65 -101.19,67.3 -79.39,65.15 -72.03,67 -78.26,123.69 136.82,29.13 286.24,-53.13 407.09,-112.8 3.07,-1.51 7.04,-3.49 10.12,-5.01 3.09,-1.5 7.07,-3.46 10.16,-4.95l30.63 -14.5c99.85,-46.88 116.46,-64.13 180.58,-127.32 149.26,-147.09 299.82,-286.26 387.89,-533.25l118.63 -277.52c41,-65.47 54.6,-29.76 75.83,-159.98 32.93,-202.01 60.16,-240.12 96.99,-512.85 25,-185.14 19.09,-406.65 43.9,-583.12 48.94,-347.85 33.98,-823.78 33.23,-1210 -1.6,-815.92 -3.37,-1642.33 10.94,-2446.8 10.15,-570.16 -17.94,-1231.81 -17.75,-1835.13l1.98 -458.89c2.07,-53.94 7.12,-116.28 -26.86,-155.53l10.94 4544.62c-0.34,212.42 11.65,443.41 -14.57,652.65 -44.44,-43.7 -109.82,-192.52 -126.99,-250.68 -32.59,-110.45 -28.29,-244.39 -28.73,-371.4l-2.92 -4022.46c-2.13,-371.18 -47.63,-937.46 -97.4,-1308.47l-33.85 -143.8c-2.85,-51.29 -6.25,-107.66 -17.44,-141.64l-76.21 -226.85c-29.92,-149.09 -58.12,-107.47 -148.86,-357.34 -41.11,-113.19 -66.35,-178.56 -145.21,-209.23 33.25,112.17 108.85,224.68 152.1,353.28 33.16,98.59 93.64,280.26 103.85,382.9z"/>
   <path class="fil8" d="M18200.87 12964.97l24.81 -1753.23c-0.92,353.12 1.79,717.38 12.11,1055.29 27.24,-29.01 7.9,2.1 24.38,-35.62 22.7,-51.95 14.67,-309.57 14.85,-369.83l-1.52 -1284.58c-0.78,-277.88 7.47,-575.1 -7.29,-850.89 -5.49,-102.6 -19.66,-513.65 -38.91,-599.89 -6.76,-30.24 -16.12,-55.37 -31.77,-76.28 -28.31,-37.81 -29.56,-33.26 -67.19,-51.2l41.46 967.18c8.5,329.14 4.1,662.82 6.49,993.4 2.44,336.37 2.06,672.91 2.83,1009.3l4.06 749.34c0.44,41.02 0.41,81.81 0.46,122.81 0.08,66.62 -5.52,83.76 15.23,124.2z"/>
  </g>
 </g>
</svg>
